<svg xmlns="http://www.w3.org/2000/svg" xmlns:xlink="http://www.w3.org/1999/xlink" width="1127" height="606" viewBox="0 0 1127 606">
  <defs>
    <linearGradient id="hero2-a" x1="50%" x2="50%" y1="0%" y2="100%">
      <stop offset="0%" stop-color="#3094FB"></stop>
      <stop offset="100%" stop-color="#0A61E6"></stop>
    </linearGradient>
    <linearGradient id="hero2-b" x1="-27.505%" x2="63.784%" y1="-4.614%" y2="93.078%">
      <stop offset="0%" stop-color="#6BC7FF"></stop>
      <stop offset="100%" stop-color="#1E7FFF"></stop>
    </linearGradient>
    <linearGradient id="hero2-c" x1="50%" x2="23.013%" y1="0%" y2="100%">
      <stop offset="0%" stop-color="#67ABFD"></stop>
      <stop offset="100%" stop-color="#3991FC"></stop>
    </linearGradient>
    <linearGradient id="hero2-d" x1="67.311%" x2="76.593%" y1="104.884%" y2="-9.669%">
      <stop offset="0%" stop-color="#009CF2" stop-opacity="0"></stop>
      <stop offset="100%" stop-color="#09F8E4"></stop>
    </linearGradient>
    <path id="hero2-f" d="M295.335924,171.368071 C296.165148,170.880003 297.765081,170.875475 298.927449,171.365535 C300.08177,171.852202 300.34606,172.641941 299.516089,173.130448 L298.664076,173.631929 C297.834852,174.119997 296.234919,174.124525 295.072551,173.634465 C293.91823,173.147798 293.65394,172.358059 294.483911,171.869552 L295.335924,171.368071 Z"></path>
    <filter id="hero2-e" width="483.3%" height="866.7%" x="-191.7%" y="-316.7%" filterUnits="objectBoundingBox">
      <feOffset dy="2" in="SourceAlpha" result="shadowOffsetOuter1"></feOffset>
      <feGaussianBlur in="shadowOffsetOuter1" result="shadowBlurOuter1" stdDeviation="3.5"></feGaussianBlur>
      <feComposite in="shadowBlurOuter1" in2="SourceAlpha" operator="out" result="shadowBlurOuter1"></feComposite>
      <feColorMatrix in="shadowBlurOuter1" values="0 0 0 0 0.322585806   0 0 0 0 0.628769714   0 0 0 0 0.797698767  0 0 0 1 0"></feColorMatrix>
    </filter>
    <linearGradient id="hero2-g" x1="172.669%" x2="17.901%" y1="-93.077%" y2="124.605%">
      <stop offset="0%" stop-color="#84FFF5"></stop>
      <stop offset="100%" stop-color="#0C5DE9"></stop>
    </linearGradient>
    <path id="hero2-i" d="M52,69 C52,69 65.6851039,71.1983688 81.6530966,73.8888014 C97.6210893,76.5792339 106.19973,73.3788027 116.051498,75.3733601 C125.903266,77.3679175 117.764079,82.0464229 136.848737,85.0635338 C155.933395,88.0806447 161.669857,81.3914483 172.388967,84.2798018 C183.108077,87.1681553 177.775059,94.9834417 186.412595,98.4189286 C195.050131,101.854416 262.980622,89.8103166 273.066769,90.2701299 C283.152917,90.7299432 276.520122,103.844495 285.966549,106.908311 C295.412977,109.972128 327.811963,100.534217 341.023785,106.153087 C354.235607,111.771957 350.396242,113.814221 363.34044,118.42101 C376.284638,123.027798 386.547474,123.201665 392.558382,124.494044 C398.56929,125.786423 396.737231,130.742534 396.737231,130.742534 L391.501017,138"></path>
    <filter id="hero2-h" width="109.9%" height="149.3%" x="-4.9%" y="-17.4%" filterUnits="objectBoundingBox">
      <feMorphology in="SourceAlpha" operator="dilate" radius="1" result="shadowSpreadOuter1"></feMorphology>
      <feOffset dy="5" in="shadowSpreadOuter1" result="shadowOffsetOuter1"></feOffset>
      <feMorphology in="SourceAlpha" radius="1" result="shadowInner"></feMorphology>
      <feOffset dy="5" in="shadowInner" result="shadowInner"></feOffset>
      <feComposite in="shadowOffsetOuter1" in2="shadowInner" operator="out" result="shadowOffsetOuter1"></feComposite>
      <feGaussianBlur in="shadowOffsetOuter1" result="shadowBlurOuter1" stdDeviation="4.5"></feGaussianBlur>
      <feColorMatrix in="shadowBlurOuter1" values="0 0 0 0 0.531940499   0 0 0 0 0.837196695   0 0 0 0 1  0 0 0 1 0"></feColorMatrix>
    </filter>
    <linearGradient id="hero2-j" x1="-27.505%" x2="166.697%" y1="-4.614%" y2="50%">
      <stop offset="0%" stop-color="#6BC7FF"></stop>
      <stop offset="100%" stop-color="#1E7FFF"></stop>
    </linearGradient>
  </defs>
  <g fill="none" fill-rule="evenodd">
    <g transform="translate(0 81)">
      <g transform="translate(20 87)">
        <path class="svgFirefoxFix" fill="#E8F0FB" d="M934.344123,258.131568 L588.718199,435.0406 C581.826799,438.567971 569.653859,439.0041 561.529176,436.014722 L139.812691,280.849289 C131.688008,277.859911 130.688234,272.577043 137.579633,269.049672 L193.234912,240.562452 L3.22311901,170.630086 C-0.6207103,169.215395 -1.09370848,166.715333 2.16664801,165.046042 L171.39738,78.4005049 C174.657737,76.7312139 180.416817,76.5248203 184.260647,77.9395118 L374.302336,147.882881 L495.281801,85.9594003 C502.173201,82.4320294 514.346141,81.9959 522.470824,84.985278 L745.560581,167.068431 L891.39738,92.4005049 C894.657737,90.7312139 900.416817,90.5248203 904.260647,91.9395118 L1103.77688,165.369914 C1107.62071,166.784605 1108.09371,169.284667 1104.83335,170.953958 L935.60262,257.599495 C935.215831,257.797529 934.793876,257.974975 934.344123,258.131568 Z" style="mix-blend-mode:multiply"></path>
        <path fill="#D3E8FF" d="M925.002548,163.091912 L951,163.091912 L951,176.143382 L950.978663,176.143382 C951.199505,178.18549 949.707801,180.267651 946.420367,181.950328 L588.718199,365.0406 C581.826799,368.567971 569.653859,369.0041 561.529176,366.014722 L139.812691,210.849289 C135.56376,209.285947 133.263443,207.095351 133.021337,204.856618 L133,204.856618 L133,190.5 L154.283067,190.5 L495.281801,15.9594003 C502.173201,12.4320294 514.346141,11.9959 522.470824,14.985278 L925.002548,163.091912 Z"></path>
        <path fill="#FFF" d="M522.470824,1.985278 L944.187309,157.150711 C952.311992,160.140089 953.311766,165.422957 946.420367,168.950328 L588.718199,352.0406 C581.826799,355.567971 569.653859,356.0041 561.529176,353.014722 L139.812691,197.849289 C131.688008,194.859911 130.688234,189.577043 137.579633,186.049672 L495.281801,2.95940028 C502.173201,-0.567970582 514.346141,-1.00409999 522.470824,1.985278 Z"></path>
      </g>
      <g transform="translate(740 32)">
        <path class="svgFirefoxFix" fill="#E8F0FB" d="M15.3325443,135.305149 L224.187309,212.150711 C225.796253,212.742702 227.125783,213.424636 228.169948,214.165068 L215.60262,220.599495 C212.342263,222.268786 206.583183,222.47518 202.739353,221.060488 L3.22311901,147.630086 C-0.6207103,146.215395 -1.09370848,143.715333 2.16664801,142.046042 L15.3325443,135.305149 Z" style="mix-blend-mode:multiply"></path>
        <path fill="#D3E8FF" d="M374.700472,78.0294118 L387,78.0294118 L387,90.2058824 C387.094387,91.1722884 386.388654,92.1576491 384.833352,92.9539581 L215.60262,179.599495 C212.342263,181.268786 206.583183,181.47518 202.739353,180.060488 L3.22311901,106.630086 C1.21292804,105.890251 0.124636285,104.853575 0.0100945849,103.794118 L0,91 L10.0691281,91 L171.39738,14.4005049 C174.657737,12.7312139 180.416817,12.5248203 184.260647,13.9395118 L374.700472,78.0294118 Z"></path>
        <path fill="#FFF" d="M184.260647,0.93951184 L383.776881,74.3699137 C387.62071,75.7846053 388.093708,78.2846671 384.833352,79.9539581 L215.60262,166.599495 C212.342263,168.268786 206.583183,168.47518 202.739353,167.060488 L3.22311901,93.6300863 C-0.6207103,92.2153947 -1.09370848,89.7153329 2.16664801,88.0460419 L171.39738,1.40050492 C174.657737,-0.268786078 180.416817,-0.475179712 184.260647,0.93951184 Z"></path>
        <path stroke="#D3E8FF" stroke-width="2" d="M186.111837,22.6543311 C183.43594,21.6699649 179.335791,21.8168347 177.107311,22.957256 L48.1071401,88.9729032 C46.4742471,89.8085338 46.6235435,90.5972671 48.8021445,91.398696 L200.888163,147.345669 C203.56406,148.330035 207.664209,148.183165 209.892689,147.042744 L338.89286,81.0270968 C340.525753,80.1914662 340.376456,79.4027329 338.197855,78.601304 L186.111837,22.6543311 Z"></path>
      </g>
      <path class="svgFirefoxFix" fill="#E8F0FB" d="M180.504886,256.196843 L361.572309,163.517271 L393.776881,175.369914 C397.62071,176.784605 398.093708,179.284667 394.833352,180.953958 L225.60262,267.599495 C222.342263,269.268786 216.583183,269.47518 212.739353,268.060488 L180.504886,256.196843 Z" style="mix-blend-mode:multiply"></path>
      <path fill="#D3E8FF" d="M374.700472,80.0294118 L387,80.0294118 L387,92.2058824 C387.094387,93.1722884 386.388654,94.1576491 384.833352,94.9539581 L215.60262,181.599495 C212.342263,183.268786 206.583183,183.47518 202.739353,182.060488 L3.22311901,108.630086 C1.21292804,107.890251 0.124636285,106.853575 0.0100945849,105.794118 L0,93 L10.0691281,93 L171.39738,16.4005049 C174.657737,14.7312139 180.416817,14.5248203 184.260647,15.9395118 L374.700472,80.0294118 Z"></path>
      <path fill="#FFF" d="M184.260647,2.93951184 L383.776881,76.3699137 C387.62071,77.7846053 388.093708,80.2846671 384.833352,81.9539581 L215.60262,168.599495 C212.342263,170.268786 206.583183,170.47518 202.739353,169.060488 L3.22311901,95.6300863 C-0.6207103,94.2153947 -1.09370848,91.7153329 2.16664801,90.0460419 L171.39738,3.40050492 C174.657737,1.73121392 180.416817,1.52482029 184.260647,2.93951184 Z"></path>
      <path stroke="#D3E8FF" stroke-width="2" d="M35.5303855,90.1591267 L86.2091124,108.821132 C86.9380538,109.089558 88.1211673,109.047135 88.6982274,108.751522 L131.469614,86.8408733 L80.7908876,68.1788681 C80.0619462,67.9104417 78.8788327,67.952865 78.3017726,68.2484776 L35.5303855,90.1591267 Z M132.091257,87.1031694 C132.093398,87.1053812 132.095455,87.1073276 132.09741,87.1090101 C132.091822,87.1041997 132.085315,87.0991154 132.077901,87.0937945 Z"></path>
      <g transform="translate(84 4)">
        <path class="svgFirefoxFix" fill="#E8F0FB" d="M47.1364445,37.2404703 L98.1754812,56.0351565 C99.1587864,56.3972502 99.2797859,57.0371469 98.4457412,57.4644059 L55.1541585,79.6415374 C54.3201138,80.0687964 52.8468607,80.1216234 51.8635555,79.7595297 L0.824518817,60.9648435 C-0.158786356,60.6027498 -0.27978589,59.9628531 0.554258793,59.5355941 L43.8458415,37.3584626 C44.6798862,36.9312036 46.1531393,36.8783766 47.1364445,37.2404703 Z" style="mix-blend-mode:multiply"></path>
        <path fill="#73CCFF" d="M47.1364445,7.24047029 L98.993379,19.694039 L98.993379,26.7323085 C98.9038075,27.0792317 98.7212615,27.3232642 98.4457412,27.4644059 L55.1541585,49.6415374 C54.3201138,50.0687964 52.8468607,50.1216234 51.8635555,49.7595297 L0.824518817,30.9648435 C0.483843607,30.8393928 0.210058155,30.599134 0.00316245932,30.2440672 L0.00316245932,23.0060039 L43.8458415,7.35846257 C44.6798862,6.93120356 46.1531393,6.87837662 47.1364445,7.24047029 Z"></path>
        <path fill="#FFF" d="M47.1364445,0.240470292 L98.1754812,19.0351565 C99.1587864,19.3972502 99.2797859,20.0371469 98.4457412,20.4644059 L55.1541585,42.6415374 C54.3201138,43.0687964 52.8468607,43.1216234 51.8635555,42.7595297 L0.824518817,23.9648435 C-0.158786356,23.6027498 -0.27978589,22.9628531 0.554258793,22.5355941 L43.8458415,0.35846257 C44.6798862,-0.0687964367 46.1531393,-0.121623379 47.1364445,0.240470292 Z"></path>
      </g>
      <path class="svgFirefoxFix" fill="#E8F0FB" d="M142.136444,89.2404703 L193.175481,108.035156 C194.158786,108.39725 194.279786,109.037147 193.445741,109.464406 L150.154159,131.641537 C149.320114,132.068796 147.846861,132.121623 146.863556,131.75953 L95.8245188,112.964844 C94.8412136,112.60275 94.7202141,111.962853 95.5542588,111.535594 L138.845841,89.3584626 C139.679886,88.9312036 141.153139,88.8783766 142.136444,89.2404703 Z" style="mix-blend-mode:multiply"></path>
      <path fill="#D3E8FF" d="M192.136444,63.2404703 L243.175481,82.0351565 C244.158786,82.3972502 244.279786,83.0371469 243.445741,83.4644059 L200.154159,105.641537 C199.320114,106.068796 197.846861,106.121623 196.863556,105.75953 L145.824519,86.9648435 C144.841214,86.6027498 144.720214,85.9628531 145.554259,85.5355941 L188.845841,63.3584626 C189.679886,62.9312036 191.153139,62.8783766 192.136444,63.2404703 Z"></path>
      <path class="svgFirefoxFix" fill="#E8F0FB" d="M242.136444,37.2404703 L293.175481,56.0351565 C294.158786,56.3972502 294.279786,57.0371469 293.445741,57.4644059 L250.154159,79.6415374 C249.320114,80.0687964 247.846861,80.1216234 246.863556,79.7595297 L195.824519,60.9648435 C194.841214,60.6027498 194.720214,59.9628531 195.554259,59.5355941 L238.845841,37.3584626 C239.679886,36.9312036 241.153139,36.8783766 242.136444,37.2404703 Z" style="mix-blend-mode:multiply"></path>
      <path fill="#D3E8FF" d="M201.136444,111.24047 L252.175481,130.035156 C253.158786,130.39725 253.279786,131.037147 252.445741,131.464406 L209.154159,153.641537 C208.320114,154.068796 206.846861,154.121623 205.863556,153.75953 L154.824519,134.964844 C153.841214,134.60275 153.720214,133.962853 154.554259,133.535594 L197.845841,111.358463 C198.679886,110.931204 200.153139,110.878377 201.136444,111.24047 Z"></path>
      <path stroke="#D3E8FF" stroke-width="2" d="M255.530386,82.1591267 L306.209112,100.821132 C306.938054,101.089558 308.121167,101.047135 308.698227,100.751522 L351.469614,78.8408733 L300.790888,60.1788681 C300.061946,59.9104417 298.878833,59.952865 298.301773,60.2484776 L255.530386,82.1591267 Z M352.091257,79.1031694 C352.093398,79.1053812 352.095455,79.1073276 352.09741,79.1090101 C352.091822,79.1041997 352.085315,79.0991154 352.077901,79.0937945 Z"></path>
      <g transform="translate(96 62)">
        <path fill="#73CCFF" d="M47.1364445,7.24047029 L98.993379,19.694039 L98.993379,26.7323085 C98.9038075,27.0792317 98.7212615,27.3232642 98.4457412,27.4644059 L55.1541585,49.6415374 C54.3201138,50.0687964 52.8468607,50.1216234 51.8635555,49.7595297 L0.824518817,30.9648435 C0.483843607,30.8393928 0.210058155,30.599134 0.00316245932,30.2440672 L0.00316245932,23.0060039 L43.8458415,7.35846257 C44.6798862,6.93120356 46.1531393,6.87837662 47.1364445,7.24047029 Z"></path>
        <path fill="#FFF" d="M47.1364445,0.240470292 L98.1754812,19.0351565 C99.1587864,19.3972502 99.2797859,20.0371469 98.4457412,20.4644059 L55.1541585,42.6415374 C54.3201138,43.0687964 52.8468607,43.1216234 51.8635555,42.7595297 L0.824518817,23.9648435 C-0.158786356,23.6027498 -0.27978589,22.9628531 0.554258793,22.5355941 L43.8458415,0.35846257 C44.6798862,-0.0687964367 46.1531393,-0.121623379 47.1364445,0.240470292 Z"></path>
      </g>
    </g>
    <g transform="translate(889)">
      <g transform="translate(0 64)">
        <path fill="url(#hero2-a)" d="M60.0282392,12 L61.9986638,12 L61.9986638,82.4497566 C62.0137849,82.6046284 61.9007241,82.7625377 61.6515597,82.8901505 L34.5402437,96.7755616 C34.017924,97.0430744 33.0953005,97.0761501 32.4795065,96.8494382 L0.516354191,85.0818232 C0.194315034,84.9632607 0.0199671398,84.7971277 0.00161718547,84.6273441 L0,14.0786062 L1.6131072,14.0786062 L30.8206732,13.0393031 L60.0282392,12 Z"></path>
        <path fill="url(#hero2-b)" d="M34.5402437,96.7755616 C34.017924,97.0430744 33.0953005,97.0761501 32.4795065,96.8494382 L0.516354191,85.0818232 C0.194315034,84.9632607 0.0199671398,84.7971277 0.00161718547,84.6273441 L0,14.0786062 L1.6131072,14.0786062 L34.5402437,19.1688614 L34.5402437,96.7755616 Z"></path>
        <path fill="#73CCFF" d="M29.5197935,0.150992974 L61.4836347,11.9523076 C62.099442,12.1796687 62.1752194,12.5814644 61.6528884,12.8497433 L34.5409882,26.7749189 C34.0186572,27.0431978 33.0960138,27.0763682 32.4802065,26.849007 L0.51636532,15.0476924 C-0.0994419602,14.8203313 -0.175219446,14.4185356 0.347111567,14.1502567 L27.4590118,0.225081148 C27.9813428,-0.0431977625 28.9039862,-0.0763681679 29.5197935,0.150992974 Z"></path>
      </g>
      <g transform="translate(43)">
        <path fill="url(#hero2-a)" d="M60.0282392,12 L61.9986638,12 L61.9986638,162.449757 C62.0137849,162.604628 61.9007241,162.762538 61.6515597,162.89015 L34.5402437,176.775562 C34.017924,177.043074 33.0953005,177.07615 32.4795065,176.849438 L0.516354191,165.081823 C0.194315034,164.963261 0.0199671398,164.797128 0.00161718547,164.627344 L0,14.0786062 L1.6131072,14.0786062 L30.8206732,13.0393031 L60.0282392,12 Z"></path>
        <path fill="url(#hero2-b)" d="M34.5402437,176.696955 C34.017924,176.964468 33.0953005,176.997544 32.4795065,176.770832 L0.516354191,165.003217 C0.194315034,164.884654 0.0199671398,164.718522 0.00161718547,164.548738 L0,14 L1.6131072,14 L34.5402437,17.2770139 L34.5402437,176.696955 Z"></path>
        <path fill="#D3E8FF" d="M61.9986638,102 L61.9986638,103.449757 L61.9986638,102 Z M61.9986638,103.504505 L61.9986638,162.449757 C62.0137849,162.604628 61.9007241,162.762538 61.6515597,162.89015 L34.5402437,176.775562 C34.017924,177.043074 33.0953005,177.07615 32.4795065,176.849438 L0.516354191,165.081823 C0.194315034,164.963261 0.0199671398,164.797128 0.00161718547,164.627344 L0,104.078606 L0.0015758205,104.078606 L0.00161718547,105.627344 C0.0199671398,105.797128 0.194315034,105.963261 0.516354191,106.081823 L32.4795065,117.849438 C33.0953005,118.07615 34.017924,118.043074 34.5402437,117.775562 L61.6515597,103.89015 C61.8714023,103.777555 61.9852899,103.641375 61.9986638,103.504505 Z" style="mix-blend-mode:multiply"></path>
        <path fill="#73CCFF" d="M29.5197935,0.150992974 L61.4836347,11.9523076 C62.099442,12.1796687 62.1752194,12.5814644 61.6528884,12.8497433 L34.5409882,26.7749189 C34.0186572,27.0431978 33.0960138,27.0763682 32.4802065,26.849007 L0.51636532,15.0476924 C-0.0994419602,14.8203313 -0.175219446,14.4185356 0.347111567,14.1502567 L27.4590118,0.225081148 C27.9813428,-0.0431977626 28.9039862,-0.0763681679 29.5197935,0.150992974 Z"></path>
      </g>
      <g transform="translate(86 46)">
        <path fill="url(#hero2-a)" d="M60.0282392,12 L61.9986638,12 L61.9986638,132.449757 C62.0137849,132.604628 61.9007241,132.762538 61.6515597,132.89015 L34.5402437,146.775562 C34.017924,147.043074 33.0953005,147.07615 32.4795065,146.849438 L0.516354191,135.081823 C0.194315034,134.963261 0.0199671398,134.797128 0.00161718547,134.627344 L0,14.0786062 L1.6131072,14.0786062 L30.8206732,13.0393031 L60.0282392,12 Z"></path>
        <path fill="url(#hero2-b)" d="M34.5402437,146.775562 C34.017924,147.043074 33.0953005,147.07615 32.4795065,146.849438 L0.516354191,135.081823 C0.194315034,134.963261 0.0199671398,134.797128 0.00161718547,134.627344 L0,14.0786062 L1.6131072,14.0786062 L34.5402437,16.3036685 L34.5402437,146.775562 Z"></path>
        <path fill="#D3E8FF" d="M61.9986638,72 L61.9986638,74.4497566 L61.9986638,72 Z M61.9986638,74.5045048 L61.9986638,132.449757 C62.0137849,132.604628 61.9007241,132.762538 61.6515597,132.89015 L34.5402437,146.775562 C34.017924,147.043074 33.0953005,147.07615 32.4795065,146.849438 L0.516354191,135.081823 C0.194315034,134.963261 0.0199671398,134.797128 0.00161718547,134.627344 L0,74.0786062 L0.00154911168,74.0786062 L0.00161718547,76.6273441 C0.0199671398,76.7971277 0.194315034,76.9632607 0.516354191,77.0818232 L32.4795065,88.8494382 C33.0953005,89.0761501 34.017924,89.0430744 34.5402437,88.7755616 L61.6515597,74.8901505 C61.8714023,74.7775553 61.9852899,74.6413746 61.9986638,74.5045048 Z" style="mix-blend-mode:multiply"></path>
        <path fill="#73CCFF" d="M29.5197935,0.150992974 L61.4836347,11.9523076 C62.099442,12.1796687 62.1752194,12.5814644 61.6528884,12.8497433 L34.5409882,26.7749189 C34.0186572,27.0431978 33.0960138,27.0763682 32.4802065,26.849007 L0.51636532,15.0476924 C-0.0994419602,14.8203313 -0.175219446,14.4185356 0.347111567,14.1502567 L27.4590118,0.225081148 C27.9813428,-0.0431977625 28.9039862,-0.0763681679 29.5197935,0.150992974 Z"></path>
      </g>
      <g transform="translate(129 132)">
        <path fill="url(#hero2-a)" d="M60.0282392,12 L61.9986638,12 L61.9986638,62.4497566 C62.0137849,62.6046284 61.9007241,62.7625377 61.6515597,62.8901505 L34.5402437,76.7755616 C34.017924,77.0430744 33.0953005,77.0761501 32.4795065,76.8494382 L0.516354191,65.0818232 C0.194315034,64.9632607 0.0199671398,64.7971277 0.00161718547,64.6273441 L0,14.0786062 L1.6131072,14.0786062 L30.8206732,13.0393031 L60.0282392,12 Z"></path>
        <path fill="url(#hero2-b)" d="M32.4795065,76.8494382 L0.516354191,65.0818232 C0.194315034,64.9632607 0.0199671398,64.7971277 0.00161718547,64.6273441 L0,14.0786062 L1.6131072,14.0786062 L32.4795065,17.1711782 C32.8900358,57.1078261 32.8900358,77.0005795 32.4795065,76.8494382 Z"></path>
        <path fill="#73CCFF" d="M29.5197935,0.150992974 L61.4836347,11.9523076 C62.099442,12.1796687 62.1752194,12.5814644 61.6528884,12.8497433 L34.5409882,26.7749189 C34.0186572,27.0431978 33.0960138,27.0763682 32.4802065,26.849007 L0.51636532,15.0476924 C-0.0994419602,14.8203313 -0.175219446,14.4185356 0.347111567,14.1502567 L27.4590118,0.225081148 C27.9813428,-0.0431977626 28.9039862,-0.0763681679 29.5197935,0.150992974 Z"></path>
      </g>
    </g>
    <g transform="translate(779 121)">
      <path class="svgFirefoxFix" fill="#E8F0FB" d="M101.871542,34.7493725 L260.659656,93.3188598 C263.718828,94.4472447 264.095271,96.4413416 261.500465,97.7727999 L172.590715,143.394062 C169.99591,144.72552 165.412456,144.890144 162.353284,143.761759 L3.56516965,85.1922717 C0.505998004,84.0638868 0.129555008,82.0697899 2.72436069,80.7383316 L91.6341102,35.1170694 C94.2289158,33.7856111 98.8123701,33.6209876 101.871542,34.7493725 Z" style="mix-blend-mode:multiply"></path>
      <path fill="#0F68E9" d="M262.993362,67.5808824 C263.06848,68.3517063 262.506823,69.1376487 261.269039,69.7727999 L172.362192,115.394062 C169.767442,116.72552 165.184087,116.890144 162.124981,115.761759 L3.34028878,57.1922717 C1.74048135,56.6021651 0.87436601,55.7752922 0.783208172,54.9302491 L0.775227932,48.7933995 C0.783077057,49.6854131 1.65421898,50.5703393 3.34034407,51.1922717 L162.128458,109.761759 C165.18763,110.890144 169.771084,110.72552 172.36589,109.394062 L261.275639,63.7727999 C262.359595,63.216596 262.925046,62.5447569 262.993026,61.8686975 L262.993362,67.5808824 Z M0.775174412,48.7254172 C0.775684471,48.7406947 0.775320862,48.755972 0.775210492,48.7712478 L0.775174412,48.7254172 Z" opacity=".8"></path>
      <path fill="#47A5FF" d="M101.646716,0.749372539 L260.43483,59.3188598 C263.494002,60.4472447 263.870445,62.4413416 261.275639,63.7727999 L172.36589,109.394062 C169.771084,110.72552 165.18763,110.890144 162.128458,109.761759 L3.34034407,51.1922717 C0.281172417,50.0638868 -0.0952705794,48.0697899 2.4995351,46.7383316 L91.4092846,1.1170694 C94.0040903,-0.214388896 98.5875445,-0.379012389 101.646716,0.749372539 Z" opacity=".8"></path>
      <path stroke="#09F8E4" stroke-width="2" d="M185.713886,39.4924948 C183.380013,38.6316384 179.792248,38.7604998 177.853874,39.7551267 L102.621174,78.3584381 C101.276151,79.0486024 101.384282,79.621395 103.222172,80.2993065 L157.822547,100.438824 C160.156421,101.29968 163.744186,101.170819 165.682559,100.176192 L240.915259,61.5728806 C242.260283,60.8827163 242.152151,60.3099237 240.314261,59.6320121 L185.713886,39.4924948 Z" opacity=".8"></path>
      <path fill="#09F8E4" d="M140.808577 22.1383431L171.982464 32.9509719C172.563787 33.1592853 172.635321 33.5274194 172.14224 33.7732226L167.606715 36.0341782C167.113635 36.2799813 166.242659 36.3103728 165.661336 36.1020594L134.487449 25.2894307C133.906127 25.0811173 133.834593 24.7129832 134.327674 24.46718L138.863198 22.2062244C139.356279 21.9604212 140.227255 21.9300298 140.808577 22.1383431zM123.808577 30.8819196L154.982464 41.6945483C155.563787 41.9028617 155.635321 42.2709958 155.14224 42.516799L150.606715 44.7777546C150.113635 45.0235578 149.242659 45.0539492 148.661336 44.8456359L117.487449 34.0330071C116.906127 33.8246937 116.834593 33.4565596 117.327674 33.2107564L121.863198 30.9498008C122.356279 30.7039977 123.227255 30.6736062 123.808577 30.8819196zM106.808577 39.625496L137.982464 50.4381247C138.563787 50.6464381 138.635321 51.0145722 138.14224 51.2603754L133.606715 53.521331C133.113635 53.7671342 132.242659 53.7975256 131.661336 53.5892123L100.487449 42.7765835C99.9061267 42.5682702 99.8345927 42.200136 100.327674 41.9543328L104.863198 39.6933772C105.356279 39.4475741 106.227255 39.4171826 106.808577 39.625496zM89.8085774 48.3690724L120.982464 59.1817011C121.563787 59.3900145 121.635321 59.7581487 121.14224 60.0039518L116.606715 62.2649074C116.113635 62.5107106 115.242659 62.541102 114.661336 62.3327887L83.4874492 51.5201599C82.9061267 51.3118466 82.8345927 50.9437124 83.3276735 50.6979092L87.8631982 48.4369536C88.356279 48.1911505 89.227255 48.160759 89.8085774 48.3690724zM101.646716.749372539L133.980872 12.675926C137.040044 13.8043109 137.416487 15.7984079 134.821681 17.1298662L45.9119316 62.7511283C43.3171259 64.0825866 38.7336716 64.2472101 35.6745 63.1188252L3.34034407 51.1922717C.281172417 50.0638868-.0952705794 48.0697899 2.4995351 46.7383316L91.4092846 1.1170694C94.0040903-.214388896 98.5875445-.379012389 101.646716.749372539z" opacity=".7"></path>
    </g>
    <path stroke="#979797"></path>
    
    <g fill-rule="nonzero" transform="translate(109 95)">
      <path fill="#00A1E0" d="M12.7647288,5.16957764 C14.9007382,4.06617192 18.3911467,3.718783 21.7987105,4.11949667 C22.1348315,3.47494817 22.7966444,2.87109179 23.8010022,2.35226723 C27.6535021,0.362168111 35.0801611,0.376222956 40.3882699,2.38370658 C45.696998,4.39142445 46.8769971,7.63233785 43.0244972,9.62243697 C42.5634264,9.86094286 42.0404685,10.0750333 41.4634259,10.2615141 C42.7187818,11.5182348 42.4920639,12.922615 40.5805515,13.9100515 C39.7803497,14.3234145 38.7710412,14.6189176 37.6482381,14.7972468 C39.6086955,16.3313834 39.5404249,18.1524228 37.1347664,19.395122 C34.6295726,20.6892386 30.3293442,20.9733138 26.4732569,20.2482679 C26.2189977,20.4725598 25.9020868,20.684721 25.5213391,20.8814052 C22.5386596,22.4222177 16.7837002,22.4093676 12.6667626,20.8523752 C9.90787689,19.808987 8.58542425,18.336742 8.91085733,17.0154862 C7.53406834,16.792148 6.1964037,16.4516527 4.98439461,15.9932807 C0.249838927,14.2027102 -0.774117835,11.297557 2.69675981,9.50459378 C4.7345619,8.45191936 7.86901004,8.01688844 11.0678289,8.19928352"></path>
      <path fill="#FFF" d="M14.9577148,17.5252588 C15.0098626,17.5631232 15.0526547,17.5545564 15.0716651,17.5559787 C15.1929286,17.5474119 15.2982191,17.5319348 15.4088858,17.5181142 C15.9781268,17.438102 16.3596117,17.3035436 16.6854903,17.1352034 C17.349232,16.7923321 17.2790635,16.3970898 16.5027495,16.1034941 L16.4876629,16.0977885 C15.769881,15.8263292 15.0441919,15.9679987 14.4194184,16.1223008 L14.3375617,16.1420612 C13.8623571,16.2568258 13.4525555,16.3558957 13.1566208,16.2439756 L13.1409149,16.2380358 C12.8878066,16.1423122 12.8673505,15.9861027 13.1245617,15.8532342 C13.4103411,15.7056081 13.8793144,15.5794157 14.262721,15.5289354 C14.262721,15.5289354 14.3834629,15.5172732 14.3219894,15.4729837 C14.2895327,15.4491741 13.9934614,15.2382009 13.9609273,15.2155793 C13.9254954,15.1910502 13.8681119,15.1891428 13.8266446,15.1936604 C13.3701309,15.2441407 12.8836735,15.3686767 12.526927,15.5529625 L12.4611787,15.5874805 C11.8536666,15.9013051 11.9307862,16.3098995 12.6491432,16.5815763 L12.664274,16.5872987 C13.4216525,16.8737331 14.1350407,16.724919 14.7446715,16.5632381 L14.844783,16.5380063 C15.2983134,16.4237103 15.6887073,16.3251256 15.9959679,16.4413291 L16.0110986,16.4470514 C16.2919025,16.5532491 16.3220749,16.724668 16.0335099,16.8737331 C15.9215043,16.9315922 15.5611307,17.114941 14.8422322,17.1882604 C14.7584917,17.1982661 14.7042844,17.202081 14.6387333,17.2094598 C14.6034802,17.2130237 14.527637,17.2268276 14.5925597,17.2699291 L14.9577148,17.5252588 Z M24.6747341,12.5057048 C24.7268819,12.5435692 24.769674,12.5350024 24.7886844,12.5364246 C24.9099479,12.5278579 25.0152384,12.5123808 25.1258727,12.4985769 C25.6951137,12.4185647 26.076631,12.2839896 26.4024772,12.1156661 C27.0662189,11.7727948 26.9960828,11.3775357 26.2197687,11.0839401 L26.2046822,11.0782345 C25.4869003,10.8067752 24.7611788,10.9484614 24.1364053,11.1027635 L24.0545486,11.122524 C23.579344,11.2372885 23.16951,11.3363751 22.8735753,11.224455 L22.8578694,11.2185152 C22.6047611,11.1227917 22.584305,10.9665821 22.8415162,10.8337136 C23.1272957,10.6860876 23.5962689,10.5598951 23.9797079,10.5093981 C23.9797079,10.5093981 24.1004498,10.4977359 24.0389439,10.4534631 C24.0064872,10.4296536 23.7104159,10.2186803 23.6778818,10.1960587 C23.6424823,10.1715129 23.5850664,10.1696222 23.5435991,10.1741398 C23.0870854,10.2246201 22.600628,10.3491561 22.2438815,10.5334419 L22.1781008,10.5679767 C21.5705887,10.8818013 21.6477083,11.2903957 22.3660654,11.5620725 L22.3811961,11.5677948 C23.1385746,11.8542292 23.8519628,11.7054152 24.4615936,11.5437343 L24.5617051,11.5185025 C25.0152355,11.4042065 25.4061153,11.3053708 25.7133759,11.4215742 L25.7285066,11.4272966 C26.0093105,11.5334943 26.038997,11.7051642 25.750432,11.8542292 C25.6384588,11.9120716 25.2780852,12.0954204 24.5591867,12.1687398 C24.4754462,12.1787456 24.4220242,12.1832632 24.3561737,12.1896883 C24.3334503,12.1918467 24.2476229,12.2096997 24.3094818,12.2504253 L24.6747341,12.5057048 Z M30.638538,8.98488243 C30.763683,9.13657436 30.7048839,9.27228728 30.4587825,9.39941669 C30.2121953,9.52679709 29.9194667,9.57322828 29.5622737,9.54085194 C29.2024492,9.50872658 28.7972169,9.4082177 28.3583807,9.24225341 C27.9202081,9.0765401 27.6341152,8.91559539 27.5085167,8.7641377 C27.3840915,8.61436994 27.4432224,8.47959402 27.6898096,8.35221362 C27.9359434,8.22506747 28.2289595,8.17793354 28.5852668,8.20791721 C28.9445493,8.23862036 29.3494822,8.33817551 29.787699,8.50390555 C30.2265352,8.66986985 30.5122315,8.83153403 30.638538,8.98488243 Z M29.528334,7.91005489 C29.2226682,7.84314379 28.9162623,7.80313768 28.618905,7.79170975 C28.3208516,7.78004757 28.0294135,7.79766633 27.7514489,7.84434849 C27.4746337,7.89103065 27.2198521,7.97363633 26.9953875,8.0895888 C26.770437,8.20579225 26.6251662,8.32984299 26.5636325,8.45794287 C26.502309,8.58652796 26.5080443,8.71653528 26.5797101,8.84510365 C26.6523595,8.97320352 26.7891374,9.1008349 26.9848873,9.22393192 C27.1808804,9.34630946 27.4269111,9.46370088 27.7171827,9.57347926 C28.0074544,9.68325764 28.3085201,9.77277361 28.6117534,9.83919949 C28.9171768,9.90564209 29.2232058,9.94588245 29.5216684,9.95729365 C29.8196893,9.96897256 30.1109939,9.95086858 30.3852873,9.90323269 C30.660046,9.85539602 30.9131234,9.77252263 31.1381063,9.65630245 C31.362571,9.54034998 31.5086713,9.41701871 31.5731036,9.28963832 C31.6371591,9.16249217 31.6324967,9.03248485 31.5604098,8.904134 C31.4888332,8.77603412 31.3520229,8.64841948 31.1552326,8.52530573 C30.9597253,8.40267721 30.7129986,8.28505154 30.4233906,8.17552414 C30.1337826,8.06599674 29.8326403,7.97648077 29.528334,7.91005489 Z M36.1626047,6.34810985 C36.0705118,6.32977163 36.0461237,6.36715082 36.0461237,6.36715082 C36.0076787,6.42477568 35.9609307,6.4838395 35.889198,6.53835222 C35.8159959,6.59358441 35.7242599,6.65003804 35.6150074,6.70647493 C35.3467835,6.84503228 35.0248937,6.91385083 34.6570097,6.91122391 C34.2886399,6.90884797 33.8547627,6.82147368 33.3847137,6.64289349 C32.956904,6.48025886 32.7100792,6.31929742 32.6005873,6.15619429 C32.4913947,5.99404488 32.5716383,5.8404455 32.8458868,5.69877601 C33.0745298,5.58066512 33.2846374,5.50423353 33.5458307,5.43973184 C33.5458307,5.43973184 33.6154154,5.42686496 33.5581024,5.38664133 C33.4226238,5.29210577 33.3270013,5.22377245 33.176534,5.12067012 C33.1340106,5.09137246 33.0735031,5.1006587 33.0536334,5.10470783 C32.943325,5.12732944 32.7114044,5.19139611 32.5568117,5.24758203 C32.411794,5.29996979 32.2584453,5.36734938 32.102648,5.4478301 C31.8698267,5.56809942 31.7165839,5.69571407 31.6474543,5.82833157 C31.5780822,5.96048057 31.5763882,6.09428604 31.6426362,6.22573231 C31.7088076,6.35717857 31.8400349,6.48763765 32.030246,6.61359583 C32.220247,6.73906879 32.464354,6.8586019 32.7546256,6.96838028 C33.3823309,7.2057733 34.0137321,7.3336222 34.6300054,7.34767704 C35.2479385,7.36198286 35.8057368,7.24338674 36.2860523,6.99526853 C36.5699855,6.84859619 36.7826414,6.66835953 36.8791864,6.51762132 C36.8791864,6.51762132 36.8928289,6.48690145 36.8117743,6.47192634 L36.1626047,6.34810985 Z M35.440554,5.20764284 C35.2231819,5.10193033 35.0697513,4.99976499 34.9878156,4.90072853 C34.8627267,4.75070979 34.9062853,4.61047925 35.1524514,4.48331637 C35.3986176,4.35615348 35.693509,4.32210395 36.0493746,4.35235533 C36.2848079,4.37209904 36.5300708,4.43474349 36.7782402,4.5166297 L35.440554,5.20764284 Z M36.7701604,4.04137515 C36.4807603,3.97397882 36.1191992,3.94160249 35.9306285,3.93874132 C35.632302,3.93398944 35.3903264,3.94802756 35.2039526,3.98231134 C34.9614954,4.02755456 34.7188854,4.09995374 34.5179361,4.20375881 C34.2837867,4.32471413 34.1248069,4.45473818 34.0632077,4.58568249 C34.0011994,4.71687777 34.0071568,4.84902678 34.0815222,4.97905083 C34.1552239,5.1088239 34.2930297,5.23762651 34.4923418,5.36169398 C34.6899941,5.48551047 34.9374737,5.60385561 35.2276568,5.71360053 C35.5229721,5.82528635 35.8267136,5.91456808 36.1307977,5.97885226 C36.4373144,6.04362167 36.7482635,6.07957865 37.053723,6.08456478 C37.360024,6.09030384 37.662172,6.06267938 37.9521074,6.00241086 C38.2401514,5.94264431 38.5208782,5.84382536 38.7833856,5.70762722 C39.3224941,5.42688169 39.4428536,5.21712986 39.4716043,5.12282855 C39.4766605,5.10616352 39.4687879,5.08544935 39.3645215,5.06833256 L38.7728266,4.95425407 C38.6845708,4.93733806 38.6582479,4.97401451 38.6582479,4.97401451 C38.5920873,5.0690353 38.5234607,5.21378347 38.0773738,5.44311169 C37.7859221,5.5931137 37.4530619,5.66027578 37.1347441,5.66074427 C36.8084306,5.66146375 36.4648656,5.59215998 36.0638172,5.45120996 L37.9418982,4.48329964 C37.9418982,4.48329964 37.9899574,4.4573651 37.9295527,4.42994142 C37.9037919,4.41854696 37.4678481,4.19756798 36.7701604,4.04137515 Z M20.4200474,12.9668375 C20.2031288,12.8608908 20.0492447,12.7589597 19.967309,12.6599232 C19.8421877,12.5099212 19.8857787,12.3696739 20.1319124,12.2425278 C20.3780462,12.1153816 20.67297,12.0813154 21.0292891,12.1113325 C21.2642365,12.1313272 21.5094994,12.1939716 21.7576688,12.2758578 L20.4200474,12.9668375 Z M21.7491679,11.8008208 C21.4597678,11.7334245 21.0986926,11.7007972 20.9101219,11.697936 C20.6117954,11.6931841 20.3697874,11.707239 20.183446,11.741506 C19.9409888,11.7867492 19.6984111,11.8591317 19.4974295,11.9629535 C19.2637336,12.0836746 19.1043003,12.2139329 19.0427011,12.3448772 C18.9806928,12.4760725 18.9866178,12.6082382 19.0610156,12.7382455 C19.1347497,12.8680018 19.2725231,12.9968212 19.4718676,13.1208719 C19.6699733,13.2444542 19.9169995,13.3630336 20.2071826,13.4727785 C20.5024978,13.5844643 20.806207,13.6737628 21.1103235,13.7380302 C21.4168402,13.8027996 21.7278216,13.8387399 22.0332488,13.8437427 C22.3395822,13.8494651 22.6416978,13.8218573 22.9316332,13.7615888 C23.2196772,13.7018223 23.5003716,13.60302 23.7629114,13.4668052 C24.3019875,13.1860764 24.4223794,12.9763078 24.4511301,12.8820065 C24.4561863,12.8653415 24.4482813,12.844644 24.3440797,12.8274938 L23.7528382,12.713181 C23.6640642,12.6965327 23.6378061,12.7331757 23.6378061,12.7331757 C23.5716779,12.8281798 23.5034399,12.9727272 23.0564785,13.2025072 C22.7654802,13.3522749 22.4326525,13.4194203 22.1143347,13.4198888 C21.7879887,13.420625 21.4444561,13.3513045 21.0433754,13.2103712 L22.9214563,12.2424609 C22.9214563,12.2424609 22.9695156,12.2165263 22.9090785,12.1891194 C22.8832529,12.1777584 22.4472767,11.9567961 21.7491679,11.8008208 Z M18.0434823,15.6954184 C17.8901936,15.7030314 17.8599253,15.7006555 17.7834192,15.6939794 C17.6678202,15.683271 17.5368717,15.6506436 17.3945895,15.5968337 C17.1691766,15.5115843 17.0617669,15.4223026 17.0657881,15.3227642 C17.0650913,15.3237179 17.0351139,15.1668056 17.4245772,14.9717946 C17.6983306,14.8348937 17.9926243,14.7313229 17.9926243,14.7313229 L19.1573829,15.1718252 C19.1578364,15.1715909 18.9893992,15.3211077 18.7431754,15.4680143 C18.393021,15.6770801 18.0414701,15.6959036 18.0434823,15.6954184 Z M16.9896927,14.6291743 C16.9060749,14.6655998 16.8029899,14.7148921 16.6849921,14.7758467 C16.524142,14.8589376 16.3964937,14.9496582 16.3043674,15.0451475 C16.2112899,15.1410886 16.1632558,15.240878 16.1605951,15.3413367 C16.1577553,15.4415736 16.2092629,15.5443215 16.311113,15.6415916 C16.4134842,15.7396911 16.5787869,15.8323192 16.801678,15.9166148 C17.0283297,16.0023327 17.2539517,16.0620992 17.4723383,16.0935386 C17.6913001,16.1251954 17.908515,16.133528 18.1175135,16.1185528 C18.3255608,16.1040295 18.5303231,16.0663826 18.7256097,16.0066328 C18.918629,15.9480542 19.1087426,15.8706689 19.2912942,15.7763676 C19.4834981,15.6770801 19.6538797,15.5699454 19.7961481,15.4575401 C19.9372339,15.3463395 20.1007543,15.2060922 20.143963,15.1663538 C20.1734476,15.1381797 20.2019197,15.1097604 20.2293706,15.0811045 C20.2602419,15.0511041 20.1885053,15.0272778 20.1885053,15.0272778 L17.8448645,14.1417724 C17.3310824,13.9474641 16.8496843,13.8553045 16.4158664,13.8681714 C15.9835748,13.880804 15.5745943,13.9855461 15.1998711,14.1791181 C15.0592649,14.2517515 14.859455,14.3786802 14.7610531,14.4627248 C14.7610531,14.4627248 14.459588,14.7153606 14.4709319,14.8706165 C14.4709319,14.8706165 14.4655721,14.9015706 14.5563701,14.9177671 L15.1764633,15.0334854 C15.2560034,15.0487282 15.2793213,15.0175231 15.2793213,15.0175231 C15.2793213,15.0175231 15.28604,15.0072831 15.2894279,14.9936968 C15.3821579,14.7058234 15.8466569,14.473199 15.8466569,14.473199 C16.0494849,14.3684235 16.2606731,14.3088912 16.4759097,14.2962753 C16.6852519,14.2838936 16.8991284,14.3181774 17.2403668,14.447231 L17.3486712,14.4881908 C17.1558792,14.5596363 16.9896927,14.6291743 16.9896927,14.6291743 Z M30.6768071,6.29542092 C30.6280433,6.30540989 30.4225861,6.37041355 30.2887965,6.42994586 C30.0337761,6.54422513 29.9570391,6.6323189 29.9116764,6.71996089 C29.8672853,6.80710093 29.854068,6.91756532 29.913749,7.00450458 L29.6021085,6.88664466 C29.5586629,6.87021388 29.5014454,6.86877493 29.4700916,6.88497147 L28.9893227,7.13332392 C28.9580013,7.14950373 28.9700225,7.17425029 29.0135124,7.19069781 L32.8345154,8.63577012 C32.8773416,8.65196665 32.9384175,8.65196665 32.9697389,8.63578685 L33.4624922,8.38124357 C33.4936693,8.36492028 33.4840961,8.33861568 33.4410881,8.32243073 L31.5321793,7.60049693 C31.2759298,7.50358543 31.041106,7.39619972 30.9220438,7.3140458 C30.8039005,7.23307986 30.7320716,7.15641403 30.7089701,7.08664176 C30.6869857,7.01688622 30.7013086,6.95260204 30.7507119,6.89497718 C30.8012655,6.83616434 30.8856489,6.78188587 30.9538952,6.74663163 C31.0520701,6.69591707 31.194527,6.65328404 31.194527,6.65328404 C31.2361108,6.63686999 31.2262022,6.61495112 31.1934698,6.59187775 C31.1086544,6.5309065 30.849224,6.3511216 30.7968891,6.31564985 C30.7531838,6.28636893 30.6955597,6.29135505 30.6768071,6.29542092 Z"></path>
      <path fill="#FFF" d="M24.400801,8.03514301 C24.3157053,8.05657665 24.2442888,8.0782278 24.1550616,8.10801069 C24.0655145,8.13851305 23.9709614,8.17943942 23.8737258,8.22966876 C23.5344376,8.40493602 23.3980445,8.5925682 23.4685801,8.78707722 C23.5387957,8.98068271 23.8029866,9.19403191 24.2537736,9.42143595 L24.4038306,9.49882126 L23.9779632,9.71881305 C23.9779632,9.71881305 23.9238113,9.74453007 23.9895821,9.77931581 L24.4532564,10.0169263 C24.4985628,10.038611 24.5468009,10.0423924 24.5965524,10.0166921 L25.0109537,9.80262343 L27.7964669,11.2322354 C28.0218723,11.3467824 28.1962574,11.4465551 28.3154413,11.5291607 C28.4330988,11.6103777 28.5119987,11.6760673 28.5491061,11.7346459 C28.5842992,11.7908486 28.6007881,11.837514 28.5582838,11.891575 C28.5233603,11.9360987 28.4625484,11.979903 28.3809573,12.0220508 C28.3357729,12.0453918 28.2652984,12.0727319 28.2080027,12.0910868 C28.151768,12.1094083 28.1150685,12.1165696 28.06186,12.1265586 C28.06186,12.1265586 27.9883395,12.1420524 28.0350676,12.1770556 C28.0746158,12.2056338 28.37886,12.419669 28.4165381,12.445888 C28.4546135,12.4718225 28.5127287,12.4773106 28.548157,12.4696976 C28.6299363,12.4511251 28.6885507,12.4366018 28.7882504,12.4070699 C28.9258526,12.3658758 29.0157152,12.3211178 29.0982132,12.2785015 C29.2705943,12.189454 29.3948793,12.0954037 29.4611523,12.0037293 C29.527215,11.9115696 29.5287594,11.8099063 29.4778482,11.6999104 C29.4221223,11.58108 29.3182902,11.4803703 29.1477081,11.3572566 C28.9797047,11.2355818 28.7459052,11.0972252 28.4526843,10.9467715 L25.6096556,9.49334991 L26.2273058,9.1742882 C26.2273058,9.1742882 26.2818788,9.14835366 26.2151118,9.11356792 L25.7525103,8.87595738 C25.7061754,8.85428949 25.6589982,8.85047461 25.6087285,8.87644261 L25.0090548,9.18621808 C24.9940662,9.17765132 24.7328281,9.05453757 24.5302361,8.91644872 C24.4445375,8.85763589 24.4059905,8.79358595 24.3883283,8.74523059 C24.3714957,8.6975947 24.3798018,8.65332194 24.4120727,8.61353335 C24.4450521,8.57282449 24.5002803,8.53305263 24.5744864,8.49471971 C24.6307159,8.46567303 24.6952638,8.44020699 24.7491545,8.42305673 C24.8242634,8.39949813 24.8556436,8.39116562 24.8772261,8.38567754 C24.9637145,8.36352442 24.9474198,8.34997154 24.9191764,8.3285379 L24.5248629,8.05113876 C24.481555,8.02157339 24.4205941,8.03109388 24.400801,8.03514301 Z M21.5625509,14.4587259 C21.6053771,14.4749224 21.6174426,14.4996857 21.5860888,14.5158822 L21.088736,14.7728014 C21.0573822,14.788998 21.0006182,14.7873248 20.957792,14.7711282 L15.4903679,12.7033928 C15.4475859,12.687213 15.435067,12.662684 15.4664208,12.6464874 L15.9637735,12.3895682 C15.9951273,12.3733717 16.0523448,12.3748106 16.0951268,12.3909904 L21.5625509,14.4587259 Z"></path>
    </g>
    <g fill-rule="nonzero" transform="translate(116 151)">
      <path fill="url(#hero2-c)" d="M2.92452914,11.5857101 L20.739969,2.02061172 C22.7404636,0.942167101 25.5418469,0.232168562 28.5245806,0.0476353896 C31.5073144,-0.136897783 34.4256286,0.219239494 36.6341253,1.0372859 L56.293432,8.28392935 C58.5106961,9.09726856 59.8396609,10.3067265 59.9864201,11.6448263 C60.1331793,12.982926 59.0856403,14.3394115 57.0754709,15.4142899 L39.260031,24.9793883 C37.2595364,26.0578329 34.4581531,26.7678314 31.4754194,26.9523646 C28.4926856,27.1368978 25.5743714,26.7807605 23.3658747,25.9627141 L3.70656801,18.7160707 C1.48930394,17.9027314 0.160339105,16.6932735 0.0135799024,15.3551737 C-0.133179301,14.017074 0.914359727,12.6605885 2.92452914,11.5857101 Z"></path>
      <path fill="#FFF" d="M12.3833663,14.7195155 L30.9464916,5.25940559 C31.1644084,5.14720079 31.4400901,5.05798492 31.7480682,5 L32.1546987,7.69695407 L32.5729563,10.4945364 L33,13.2661941 C32.9823807,13.3636847 33.0160852,13.4152741 32.9678446,13.4878595 C32.9034041,13.5847011 32.7945561,13.6820467 32.6342817,13.758622 C32.4858886,13.8294826 32.2819971,13.8772226 32.0833654,13.9178566 C31.9288932,13.9492618 31.67157,13.9687429 31.5976816,13.9805266 L25.9790651,14.2802196 L25.5892985,14.2980919 L25.2118099,14.3202602 L25.0813595,14.3227421 L18.4929179,14.6591589 L12,15 C12.0852826,14.899345 12.2132406,14.8062179 12.3833663,14.7195155 Z M12.0474693,15.7314598 L18.7401913,15.3693901 L25.420462,15.0027736 L25.5523521,15 L25.7474336,17.6324543 L25.9801865,20.6051844 L26,21 C25.4442862,21.0004848 24.8781002,20.9168238 24.4061584,20.744481 L12.9088512,16.545918 C12.3256516,16.3329464 12.0151396,16.0347445 12,15.7343692 L12.0474693,15.7314598 Z M33,5.0027057 C33.6045769,4.98310708 34.2356317,5.06999241 34.7524637,5.26294859 L46.1854732,9.53139587 C46.5904713,9.68259955 46.8671396,9.87684741 47,10.0844601 L46.6081036,10.1144153 L39.9745569,10.573619 L33.8648204,11 L33.8589766,10.9460334 L33.425967,7.94185124 L33,5.0027057 Z M31.8363619,14.6317098 C32.0942584,14.6057161 32.2171135,14.5957739 32.393753,14.5576256 C32.7451153,14.4816192 33.1040171,14.389234 33.3624921,14.2559361 C33.6198246,14.1228811 33.7725033,13.9529784 33.8851824,13.7879463 C33.9553007,13.6855553 33.9346041,13.5902802 33.9735063,13.4735366 L33.6051402,10.9171344 L39.8065982,10.4889257 L46.5648147,10.0266377 L47,10 C46.9729717,10.2097905 46.8165119,10.4159116 46.4925616,10.5879931 L27.4534853,20.7014988 C27.1840175,20.8446393 26.8368201,20.9406335 26.4633435,21 L26.4330736,20.6179343 L26.2090826,17.6092594 L26,14.9566003 L31.8363619,14.6317098 Z"></path>
    </g>
    <g transform="translate(229 169)">
      <polygon fill="url(#hero2-a)" points="241.572 7 666 157.293 666 164.138 424.428 289 0 131.862 0 125.075"></polygon>
      <polygon fill="url(#hero2-b)" points="241.572 0 666 157.138 424.428 282 0 124.862"></polygon>
      <polygon fill="#FFF" points="224.482 17 285 39.372 74.518 148 14 125.628" opacity=".169"></polygon>
      <path d="M214,82 L555,208" opacity=".404"></path>
      <polygon fill="#09F8E4" points="245.915 7 653 157.225 632.085 168 225 17.775"></polygon>
      <polygon fill="#73CCFF" points="245.781 6 306 28.271 285.219 39 225 16.729"></polygon>
      <polygon fill="#73CCFF" points="245.812 6 268 14.227 247.188 25 225 16.773"></polygon>
      <path fill="url(#hero2-d)" d="M133.967446,144 C133.967446,144 147.653746,146.199723 163.623198,148.891736 C179.592651,151.58375 188.169672,148.38415 198.022514,150.379684 C207.875356,152.375218 199.738556,157.05294 218.824856,160.07194 C237.911156,163.090939 243.644181,156.402281 254.364831,159.2917 C265.085481,162.181119 259.756485,169.99591 268.395835,173.43226 C277.035186,176.868609 344.959731,164.831146 355.04616,165.291953 C365.132588,165.75276 358.506552,178.866709 367.954605,181.931466 C377.402658,184.996223 409.796897,175.561463 423.011683,181.181654 C436.226469,186.801844 432.388145,188.843739 445.334782,193.451818 C458.281419,198.059897 468.544387,198.234774 474.55599,199.527749 C480.567593,200.820723 478.73809,205.776673 478.73809,205.776673 L473.50561,213.033651 L395.91676,253 L120,151.194691 L133.967446,144 Z" opacity=".427"></path>
      <path fill="#8CA0B3" d="M354.008223,110.083128 C353.968418,110.034066 354.076974,109.996933 354.250656,110.0002 C354.424249,110.003442 354.597249,110.04583 354.636977,110.094857 L355.189898,110.777115 L357.605431,110.822209 C357.779066,110.825462 357.952049,110.867846 357.991786,110.916875 C358.031566,110.965914 357.923015,111.003046 357.749352,110.999803 L355.019349,110.94883 C354.932527,110.947203 354.845956,110.935803 354.776063,110.918678 C354.706137,110.901544 354.652972,110.878687 354.633099,110.854174 L354.008223,110.083128 Z"></path>
      <path d="M210,39 L196,46"></path>
      <path stroke="#8CA0B3" stroke-dasharray="2 2 2" stroke-linecap="square" stroke-width=".5" d="M146,73 L96,99"></path>
      <use fill="#000" filter="url(#hero2-e)" xlink:href="#hero2-f"></use>
      <use fill="#FFF" xlink:href="#hero2-f"></use>
      <path stroke="#09F8E4" stroke-width="2" d="M295.219601,172.596895 C295.285694,172.633226 295.366009,172.672947 295.46104,172.713012 C296.348328,173.087097 297.621244,173.085365 298.156832,172.770126 L298.780399,172.403105 C298.714306,172.366774 298.633991,172.327053 298.53896,172.286988 C297.651672,171.912903 296.378756,171.914635 295.843168,172.229874 L295.219601,172.596895 Z"></path>
      <polygon fill="#09F8E4" points="265.76 21 291 30.101 285.24 33 260 23.899"></polygon>
      <polygon fill="#1E7FFF" points="305.714 33 317 37.088 307.286 42 296 37.912"></polygon>
      <polygon fill="#1E7FFF" points="325.714 41 337 45.088 327.286 50 316 45.912"></polygon>
      <polygon fill="#1E7FFF" points="345.714 48 357 52.088 347.286 57 336 52.912"></polygon>
      <polygon fill="#1E7FFF" points="364.714 55 376 59.088 366.286 64 355 59.912"></polygon>
      <polygon fill="#FFF" points="228.762 25 241 29.198 237.238 31 225 26.802"></polygon>
      <polygon fill="#FFF" points="217.641 31 234 37.103 230.359 39 214 32.897"></polygon>
      <polygon fill="#FFF" points="218.714 41 240 49.041 236.286 51 215 42.959"></polygon>
      <polygon fill="#FFF" points="206.714 47 228 55.041 224.286 57 203 48.959"></polygon>
      <polygon fill="#FFF" points="183.752 49 207 57.161 203.248 59 180 50.839"></polygon>
      <polygon fill="#FFF" points="172.752 55 196 63.161 192.248 65 169 56.839"></polygon>
      <polygon fill="#FFF" points="149.641 66 166 72.103 162.359 74 146 67.897"></polygon>
      <polygon fill="#FFF" points="152.804 76 164 80.07 160.196 82 149 77.93"></polygon>
      <polygon fill="#FFF" points="140.804 82 152 86.07 148.196 88 137 83.93"></polygon>
      <polygon fill="#FFF" points="129.641 87 146 93.103 142.359 95 126 88.897"></polygon>
      <polygon fill="#FFF" points="118.804 93 130 97.07 126.196 99 115 94.93"></polygon>
      <polygon fill="#FFF" points="105.67 100 125 107.114 121.33 109 102 101.886"></polygon>
      <polygon fill="#1E7FFF" points="588.734 137 619 148.072 613.266 151 583 139.928"></polygon>
      <polygon fill="#1E7FFF" points="591.472 145 611 151.799 608.528 153 589 146.201"></polygon>
      <g transform="translate(33 85)">
        <polygon fill="url(#hero2-a)" points="146.224 7 486 126.267 486 133.187 339.776 209 0 82.813 0 75.78"></polygon>
        <polygon fill="url(#hero2-g)" points="146.224 0 486 126.187 339.776 202 0 75.813" opacity=".974"></polygon>
        <use fill="#000" filter="url(#hero2-h)" xlink:href="#hero2-i"></use>
        <use stroke="#09F8E4" stroke-width="2" xlink:href="#hero2-i"></use>
        <path fill="#09F8E4" d="M329.107475,181.707832 C333.522856,179.431007 342.097774,179.430467 348.263118,181.707745 C354.427107,183.984522 355.84861,187.673895 351.429253,189.95277 L346.892525,192.292168 C342.477144,194.568993 333.902226,194.569533 327.736882,192.292255 C321.572893,190.015478 320.15139,186.326105 324.570747,184.04723 L329.107475,181.707832 Z"></path>
        <polygon fill="#F7FCFF" points="144.529 1 187 16.62 178.471 21 136 5.38"></polygon>
        <polygon fill="#F7FCFF" points="191.529 19 234 34.62 225.471 39 183 23.38"></polygon>
        <polygon fill="#F7FCFF" points="238.529 36 281 51.62 272.471 56 230 40.38"></polygon>
        <polygon fill="#F7FCFF" points="285.529 54 328 69.62 319.471 74 277 58.38"></polygon>
        <polygon fill="#F7FCFF" points="333.529 71 376 86.62 367.471 91 325 75.38"></polygon>
      </g>
      <g transform="translate(207 43)">
        <polygon fill="url(#hero2-a)" points="52.477 7 392 125.86 392 132.846 339.523 160 0 34.154 0 27.225"></polygon>
        <polygon fill="url(#hero2-j)" points="52.477 0 392 125.846 339.523 153 0 27.154"></polygon>
        <polygon fill="#09F8E4" points="323.494 135 352 145.838 338.506 153 310 142.162"></polygon>
        <polygon fill="#09F8E4" points="55.47 6 94 20.63 89.53 23 51 8.37"></polygon>
        <polygon fill="#FFF" points="311.485 101 378 125.677 373.515 128 307 103.323"></polygon>
        <polygon fill="#09F8E4" points="329.938 121 364 133.79 354.062 139 320 126.21"></polygon>
        <polygon fill="#09F8E4" points="268.899 98 308 112.039 298.101 117 259 102.961"></polygon>
        <polygon fill="#09F8E4" points="203.899 74 243 88.039 233.101 93 194 78.961"></polygon>
        <polygon fill="#09F8E4" points="139.938 50 174 62.79 164.062 68 130 55.21"></polygon>
        <polygon fill="#09F8E4" points="40.938 14 75 26.79 65.062 32 31 19.21"></polygon>
        <polygon fill="#91D0FE" points="13.248 22 319 134.725 308.752 140 3 27.275"></polygon>
      </g>
    </g>
  </g>
</svg>