<svg id="Layer_1" data-name="Layer 1" xmlns="http://www.w3.org/2000/svg" xmlns:xlink="http://www.w3.org/1999/xlink" viewBox="0 0 165.22 51.09"><defs><style>.cls-1{fill:none;}.cls-2{clip-path:url(#clip-path);}.cls-3{fill:url(#linear-gradient);}.cls-4{clip-path:url(#clip-path-2);}.cls-5{fill:url(#linear-gradient-2);}.cls-6{clip-path:url(#clip-path-3);}.cls-7{fill:url(#linear-gradient-3);}.cls-8{clip-path:url(#clip-path-4);}.cls-9{fill:#f8f6e7;}</style><clipPath id="clip-path"><path class="cls-1" d="M35.21,35.21a20.56,20.56,0,0,1-16.91,5.9A17.2,17.2,0,1,0,41.11,18.3a20.57,20.57,0,0,1-5.9,16.91"/></clipPath><linearGradient id="linear-gradient" y1="51.09" x2="1" y2="51.09" gradientTransform="translate(18.34 -1721.62) scale(34.39)" gradientUnits="userSpaceOnUse"><stop offset="0" stop-color="#db506c"/><stop offset="1" stop-color="#ea8d9f"/></linearGradient><clipPath id="clip-path-2"><path class="cls-1" d="M6,6A20.61,20.61,0,0,0,18.3,41.11,17.17,17.17,0,0,1,41.11,18.3,20.62,20.62,0,0,0,6,6"/></clipPath><linearGradient id="linear-gradient-2" y1="51.09" x2="1" y2="51.09" gradientTransform="matrix(0, -37.21, 37.21, 0, -1881.53, 37.74)" gradientUnits="userSpaceOnUse"><stop offset="0" stop-color="#f66675"/><stop offset="0" stop-color="#f66675"/><stop offset="1" stop-color="#fcc48d"/></linearGradient><clipPath id="clip-path-3"><path class="cls-1" d="M21.74,21.74A17.18,17.18,0,0,0,18.3,41.11,20.59,20.59,0,0,0,41.11,18.3a17.27,17.27,0,0,0-7.24-1.59,17.09,17.09,0,0,0-12.13,5"/></clipPath><linearGradient id="linear-gradient-3" y1="51.09" x2="1" y2="51.09" gradientTransform="translate(-1224.59 41.24) rotate(-90) scale(24.53)" gradientUnits="userSpaceOnUse"><stop offset="0" stop-color="#4c3d69"/><stop offset="1" stop-color="#c73e67"/></linearGradient><clipPath id="clip-path-4"><rect class="cls-1" width="165.22" height="51.09"/></clipPath></defs><title>brring-logo</title><g class="cls-2"><rect class="cls-3" x="11.17" y="11.17" width="48.74" height="48.74" transform="translate(-14.72 35.54) rotate(-45)"/></g><g class="cls-4"><rect class="cls-5" x="-9.4" y="-8.03" width="57.9" height="57.16" transform="translate(-7.66 12.53) rotate(-30)"/></g><g class="cls-6"><rect class="cls-7" x="15.36" y="16.71" width="26.43" height="25.08"/></g><g class="cls-8"><path class="cls-9" d="M27.29,32.59a1,1,0,1,1,1,1,1,1,0,0,1-1-1"/><path class="cls-9" d="M31,32.59a1,1,0,1,1,1,1,1,1,0,0,1-1-1"/><path class="cls-9" d="M23.53,32.59a1,1,0,1,1,1,1,1,1,0,0,1-1-1"/><path class="cls-9" d="M32,27.54a1,1,0,1,1-1,1,1,1,0,0,1,1-1"/><path class="cls-9" d="M28.27,27.54a1,1,0,1,1-1,1,1,1,0,0,1,1-1"/><path class="cls-9" d="M24.51,27.54a1,1,0,1,1-1,1,1,1,0,0,1,1-1"/><path class="cls-9" d="M32,23.47a1,1,0,1,1-1,1,1,1,0,0,1,1-1"/><path class="cls-9" d="M28.27,23.47a1,1,0,1,1-1,1,1,1,0,0,1,1-1"/><path class="cls-9" d="M24.51,23.47a1,1,0,1,1-1,1,1,1,0,0,1,1-1"/></g></svg>