<svg xmlns="http://www.w3.org/2000/svg" viewBox="0 0 97.02 31.7"><defs><style>.cls-1{fill:#2e2e30;}</style></defs><title>brring-wordmark-black</title><g id="Layer_2" data-name="Layer 2"><g id="Layer_1-2" data-name="Layer 1"><path class="cls-1" d="M0,1.38a1.36,1.36,0,1,1,2.72,0v10a8.21,8.21,0,0,1,7-4.06c4.38,0,8.73,3.46,8.73,9.47v.07c0,6-4.31,9.51-8.73,9.51a8.24,8.24,0,0,1-7-3.89v2.3a1.35,1.35,0,0,1-1.34,1.38A1.38,1.38,0,0,1,0,24.77ZM15.66,16.89v-.07c0-4.31-3-7.07-6.43-7.07a6.81,6.81,0,0,0-6.61,7v.07a6.8,6.8,0,0,0,6.61,7.07c3.54,0,6.43-2.62,6.43-7"/><path class="cls-1" d="M22.76,8.91A1.37,1.37,0,0,1,24.1,7.53a1.36,1.36,0,0,1,1.38,1.38v3.43c1.34-3,4-4.88,6.29-4.88a1.31,1.31,0,0,1,1.34,1.38,1.35,1.35,0,0,1-1.2,1.38c-3.53.42-6.43,3.07-6.43,8.34v6.22a1.36,1.36,0,1,1-2.72,0Z"/><path class="cls-1" d="M36.37,8.91a1.37,1.37,0,0,1,1.34-1.38,1.36,1.36,0,0,1,1.38,1.38v3.43c1.34-3,4-4.88,6.29-4.88a1.31,1.31,0,0,1,1.34,1.38,1.35,1.35,0,0,1-1.2,1.38c-3.53.42-6.43,3.07-6.43,8.34v6.22a1.36,1.36,0,1,1-2.72,0Z"/><path class="cls-1" d="M50,2a1.62,1.62,0,0,1,3.22,0v.46a1.62,1.62,0,0,1-3.22,0Zm.25,6.93a1.37,1.37,0,0,1,1.34-1.38,1.36,1.36,0,0,1,1.38,1.38V24.77a1.33,1.33,0,0,1-1.34,1.38,1.36,1.36,0,0,1-1.38-1.38Z"/><path class="cls-1" d="M58.57,8.91a1.37,1.37,0,0,1,1.34-1.38,1.36,1.36,0,0,1,1.38,1.38v2a6.92,6.92,0,0,1,6.26-3.57c4.42,0,7,3,7,7.31V24.77a1.36,1.36,0,1,1-2.72,0V15.3c0-3.39-1.84-5.51-5.05-5.51a5.38,5.38,0,0,0-5.48,5.72v9.26a1.33,1.33,0,0,1-1.34,1.38,1.36,1.36,0,0,1-1.38-1.38Z"/><path class="cls-1" d="M80.09,29.54a1.26,1.26,0,0,1-.71-1.13,1.3,1.3,0,0,1,1.24-1.2,1.1,1.1,0,0,1,.6.18,11.54,11.54,0,0,0,6.47,2c4,0,6.65-2.23,6.65-6.5V20.71a8.67,8.67,0,0,1-7.17,3.85A8.45,8.45,0,0,1,78.57,16v-.07A8.65,8.65,0,0,1,94.3,11V8.91a1.35,1.35,0,0,1,1.34-1.38A1.38,1.38,0,0,1,97,8.91V22.79a8.8,8.8,0,0,1-2.33,6.47,9.61,9.61,0,0,1-7,2.44,14.32,14.32,0,0,1-7.63-2.16M94.4,16V15.9c0-3.75-3.25-6.18-6.72-6.18a6,6,0,0,0-6.32,6.15v.07a6.18,6.18,0,0,0,6.32,6.22c3.46,0,6.72-2.51,6.72-6.18"/></g></g></svg>