<svg id="Layer_1" data-name="Layer 1" xmlns="http://www.w3.org/2000/svg" xmlns:xlink="http://www.w3.org/1999/xlink" viewBox="0 0 165.22 51.09"><defs><style>.cls-1{fill:none;}.cls-2{clip-path:url(#clip-path);}.cls-3{fill:url(#linear-gradient);}.cls-4{clip-path:url(#clip-path-2);}.cls-5{fill:url(#linear-gradient-2);}.cls-6{clip-path:url(#clip-path-3);}.cls-7{fill:url(#linear-gradient-3);}.cls-8{clip-path:url(#clip-path-4);}.cls-9{fill:#f8f6e7;}.cls-10{fill:#2e2e30;}</style><clipPath id="clip-path"><path class="cls-1" d="M35.21,35.21a20.57,20.57,0,0,1-16.91,5.9A17.2,17.2,0,1,0,41.11,18.3a20.57,20.57,0,0,1-5.9,16.91"/></clipPath><linearGradient id="linear-gradient" y1="51.19" x2="1" y2="51.19" gradientTransform="matrix(34.39, 0, 0, -34.39, 18.34, 1796.01)" gradientUnits="userSpaceOnUse"><stop offset="0" stop-color="#db506c"/><stop offset="1" stop-color="#ea8d9f"/></linearGradient><clipPath id="clip-path-2"><path class="cls-1" d="M6,6A20.61,20.61,0,0,0,18.3,41.11,17.17,17.17,0,0,1,41.11,18.3,20.62,20.62,0,0,0,6,6"/></clipPath><linearGradient id="linear-gradient-2" y1="51.12" x2="1" y2="51.12" gradientTransform="matrix(0, -37.21, -37.21, 0, 1921.53, 37.73)" gradientUnits="userSpaceOnUse"><stop offset="0" stop-color="#f66675"/><stop offset="0" stop-color="#f66675"/><stop offset="1" stop-color="#fcc48d"/></linearGradient><clipPath id="clip-path-3"><path class="cls-1" d="M21.74,21.74A17.18,17.18,0,0,0,18.3,41.11,20.59,20.59,0,0,0,41.11,18.3a17.27,17.27,0,0,0-7.24-1.59,17.09,17.09,0,0,0-12.13,5"/></clipPath><linearGradient id="linear-gradient-3" y1="51.11" x2="1" y2="51.11" gradientTransform="matrix(0, -24.53, -24.53, 0, 1282.14, 41.24)" gradientUnits="userSpaceOnUse"><stop offset="0" stop-color="#4c3d69"/><stop offset="1" stop-color="#c73e67"/></linearGradient><clipPath id="clip-path-4"><rect class="cls-1" width="165.22" height="51.09"/></clipPath></defs><title>brring-full-logo</title><g class="cls-2"><rect class="cls-3" x="11.17" y="11.17" width="48.74" height="48.74" transform="translate(-14.72 35.54) rotate(-45)"/></g><g class="cls-4"><rect class="cls-5" x="-9.4" y="-8.03" width="57.9" height="57.16" transform="translate(-7.66 12.53) rotate(-30)"/></g><g class="cls-6"><rect class="cls-7" x="15.36" y="16.71" width="26.43" height="25.08"/></g><g class="cls-8"><path class="cls-9" d="M27.29,32.59a1,1,0,1,1,1,1,1,1,0,0,1-1-1"/><path class="cls-9" d="M31,32.59a1,1,0,1,1,1,1,1,1,0,0,1-1-1"/><path class="cls-9" d="M23.53,32.59a1,1,0,1,1,1,1,1,1,0,0,1-1-1"/><path class="cls-9" d="M32,27.54a1,1,0,1,1-1,1,1,1,0,0,1,1-1"/><path class="cls-9" d="M28.27,27.54a1,1,0,1,1-1,1,1,1,0,0,1,1-1"/><path class="cls-9" d="M24.51,27.54a1,1,0,1,1-1,1,1,1,0,0,1,1-1"/><path class="cls-9" d="M32,23.47a1,1,0,1,1-1,1,1,1,0,0,1,1-1"/><path class="cls-9" d="M28.27,23.47a1,1,0,1,1-1,1,1,1,0,0,1,1-1"/><path class="cls-9" d="M24.51,23.47a1,1,0,1,1-1,1,1,1,0,0,1,1-1"/><path class="cls-10" d="M68.2,17.58a1.36,1.36,0,1,1,2.72,0v10a8.21,8.21,0,0,1,7-4.06c4.38,0,8.73,3.46,8.73,9.47v.07c0,6-4.31,9.51-8.73,9.51a8.24,8.24,0,0,1-7-3.89V41a1.35,1.35,0,0,1-1.34,1.38A1.38,1.38,0,0,1,68.2,41ZM83.85,33.09V33c0-4.31-3-7.07-6.43-7.07a6.81,6.81,0,0,0-6.61,7v.07a6.8,6.8,0,0,0,6.61,7.07c3.54,0,6.43-2.62,6.43-7"/><path class="cls-10" d="M91,25.11a1.37,1.37,0,0,1,1.34-1.38,1.36,1.36,0,0,1,1.38,1.38v3.43c1.34-3,4-4.88,6.29-4.88A1.31,1.31,0,0,1,101.31,25a1.35,1.35,0,0,1-1.2,1.38c-3.53.42-6.43,3.07-6.43,8.34V41A1.36,1.36,0,1,1,91,41Z"/><path class="cls-10" d="M104.57,25.11a1.37,1.37,0,0,1,1.34-1.38,1.36,1.36,0,0,1,1.38,1.38v3.43c1.34-3,4-4.88,6.29-4.88A1.31,1.31,0,0,1,114.92,25a1.35,1.35,0,0,1-1.2,1.38c-3.53.42-6.43,3.07-6.43,8.34V41a1.36,1.36,0,1,1-2.72,0Z"/><path class="cls-10" d="M118.17,18.18a1.62,1.62,0,0,1,3.22,0v.46a1.62,1.62,0,0,1-3.22,0Zm.25,6.93a1.37,1.37,0,0,1,1.34-1.38,1.36,1.36,0,0,1,1.38,1.38V41a1.33,1.33,0,0,1-1.34,1.38A1.36,1.36,0,0,1,118.42,41Z"/><path class="cls-10" d="M126.76,25.11a1.37,1.37,0,0,1,1.34-1.38,1.36,1.36,0,0,1,1.38,1.38v2a6.92,6.92,0,0,1,6.26-3.57c4.42,0,7,3,7,7.31V41A1.36,1.36,0,1,1,140,41V31.5C140,28.11,138.18,26,135,26a5.38,5.38,0,0,0-5.48,5.72V41a1.33,1.33,0,0,1-1.34,1.38A1.36,1.36,0,0,1,126.76,41Z"/><path class="cls-10" d="M148.29,45.74a1.26,1.26,0,0,1-.71-1.13,1.3,1.3,0,0,1,1.24-1.2,1.1,1.1,0,0,1,.6.18,11.54,11.54,0,0,0,6.47,2c4,0,6.65-2.23,6.65-6.5V36.91a8.67,8.67,0,0,1-7.17,3.85,8.45,8.45,0,0,1-8.59-8.55v-.07a8.65,8.65,0,0,1,15.73-4.95V25.11a1.35,1.35,0,0,1,1.34-1.38,1.38,1.38,0,0,1,1.38,1.38V39a8.8,8.8,0,0,1-2.33,6.47,9.61,9.61,0,0,1-7,2.44,14.32,14.32,0,0,1-7.63-2.16M162.6,32.17V32.1c0-3.75-3.25-6.18-6.72-6.18a6,6,0,0,0-6.32,6.15v.07a6.18,6.18,0,0,0,6.32,6.22c3.46,0,6.72-2.51,6.72-6.18"/></g></svg>